<svg width="570" height="295" viewBox="0 0 570 295" fill="none" xmlns="http://www.w3.org/2000/svg">
<path d="M344.2 184.85C349.9 184.85 355.075 185.775 359.725 187.625C364.425 189.475 368.425 192.1 371.725 195.5C375.075 198.9 377.65 203.05 379.45 207.95C381.25 212.85 382.15 218.325 382.15 224.375C382.15 230.475 381.25 235.975 379.45 240.875C377.65 245.775 375.075 249.95 371.725 253.4C368.425 256.85 364.425 259.5 359.725 261.35C355.075 263.2 349.9 264.125 344.2 264.125C338.45 264.125 333.225 263.2 328.525 261.35C323.825 259.5 319.8 256.85 316.45 253.4C313.15 249.95 310.575 245.775 308.725 240.875C306.925 235.975 306.025 230.475 306.025 224.375C306.025 218.325 306.925 212.85 308.725 207.95C310.575 203.05 313.15 198.9 316.45 195.5C319.8 192.1 323.825 189.475 328.525 187.625C333.225 185.775 338.45 184.85 344.2 184.85ZM344.2 249.875C350.6 249.875 355.325 247.725 358.375 243.425C361.475 239.125 363.025 232.825 363.025 224.525C363.025 216.225 361.475 209.9 358.375 205.55C355.325 201.2 350.6 199.025 344.2 199.025C337.7 199.025 332.875 201.225 329.725 205.625C326.625 209.975 325.075 216.275 325.075 224.525C325.075 232.775 326.625 239.075 329.725 243.425C332.875 247.725 337.7 249.875 344.2 249.875ZM413.758 199.4C416.158 194.8 419.008 191.2 422.308 188.6C425.608 185.95 429.508 184.625 434.008 184.625C437.558 184.625 440.408 185.4 442.558 186.95L441.358 200.825C441.108 201.725 440.733 202.375 440.233 202.775C439.783 203.125 439.158 203.3 438.358 203.3C437.608 203.3 436.483 203.175 434.983 202.925C433.533 202.675 432.108 202.55 430.708 202.55C428.658 202.55 426.833 202.85 425.233 203.45C423.633 204.05 422.183 204.925 420.883 206.075C419.633 207.175 418.508 208.525 417.508 210.125C416.558 211.725 415.658 213.55 414.808 215.6V263H396.283V186.05H407.158C409.058 186.05 410.383 186.4 411.133 187.1C411.883 187.75 412.383 188.95 412.633 190.7L413.758 199.4ZM470.99 151.55V263H452.465V151.55H470.99ZM537.747 205.7C535.647 203.15 533.347 201.35 530.847 200.3C528.397 199.25 525.747 198.725 522.897 198.725C520.097 198.725 517.572 199.25 515.322 200.3C513.072 201.35 511.147 202.95 509.547 205.1C507.947 207.2 506.722 209.9 505.872 213.2C505.022 216.45 504.597 220.3 504.597 224.75C504.597 229.25 504.947 233.075 505.647 236.225C506.397 239.325 507.447 241.875 508.797 243.875C510.147 245.825 511.797 247.25 513.747 248.15C515.697 249 517.872 249.425 520.272 249.425C524.122 249.425 527.397 248.625 530.097 247.025C532.797 245.425 535.347 243.15 537.747 240.2V205.7ZM556.272 151.55V263H544.947C542.497 263 540.947 261.875 540.297 259.625L538.722 252.2C535.622 255.75 532.047 258.625 527.997 260.825C523.997 263.025 519.322 264.125 513.972 264.125C509.772 264.125 505.922 263.25 502.422 261.5C498.922 259.75 495.897 257.225 493.347 253.925C490.847 250.575 488.897 246.45 487.497 241.55C486.147 236.65 485.472 231.05 485.472 224.75C485.472 219.05 486.247 213.75 487.797 208.85C489.347 203.95 491.572 199.7 494.472 196.1C497.372 192.5 500.847 189.7 504.897 187.7C508.947 185.65 513.497 184.625 518.547 184.625C522.847 184.625 526.522 185.3 529.572 186.65C532.622 188 535.347 189.825 537.747 192.125V151.55H556.272Z" fill="black"/>
<path d="M333.1 86.05C332.6 86.85 332.075 87.425 331.525 87.775C330.975 88.075 330.275 88.225 329.425 88.225C328.525 88.225 327.55 87.975 326.5 87.475C325.5 86.975 324.325 86.425 322.975 85.825C321.625 85.175 320.075 84.6 318.325 84.1C316.625 83.6 314.6 83.35 312.25 83.35C308.6 83.35 305.725 84.125 303.625 85.675C301.575 87.225 300.55 89.25 300.55 91.75C300.55 93.4 301.075 94.8 302.125 95.95C303.225 97.05 304.65 98.025 306.4 98.875C308.2 99.725 310.225 100.5 312.475 101.2C314.725 101.85 317 102.575 319.3 103.375C321.65 104.175 323.95 105.1 326.2 106.15C328.45 107.15 330.45 108.45 332.2 110.05C334 111.6 335.425 113.475 336.475 115.675C337.575 117.875 338.125 120.525 338.125 123.625C338.125 127.325 337.45 130.75 336.1 133.9C334.8 137 332.85 139.7 330.25 142C327.65 144.25 324.425 146.025 320.575 147.325C316.775 148.575 312.375 149.2 307.375 149.2C304.725 149.2 302.125 148.95 299.575 148.45C297.075 148 294.65 147.35 292.3 146.5C290 145.65 287.85 144.65 285.85 143.5C283.9 142.35 282.175 141.1 280.675 139.75L284.95 132.7C285.5 131.85 286.15 131.2 286.9 130.75C287.65 130.3 288.6 130.075 289.75 130.075C290.9 130.075 291.975 130.4 292.975 131.05C294.025 131.7 295.225 132.4 296.575 133.15C297.925 133.9 299.5 134.6 301.3 135.25C303.15 135.9 305.475 136.225 308.275 136.225C310.475 136.225 312.35 135.975 313.9 135.475C315.5 134.925 316.8 134.225 317.8 133.375C318.85 132.525 319.6 131.55 320.05 130.45C320.55 129.3 320.8 128.125 320.8 126.925C320.8 125.125 320.25 123.65 319.15 122.5C318.1 121.35 316.675 120.35 314.875 119.5C313.125 118.65 311.1 117.9 308.8 117.25C306.55 116.55 304.225 115.8 301.825 115C299.475 114.2 297.15 113.275 294.85 112.225C292.6 111.125 290.575 109.75 288.775 108.1C287.025 106.45 285.6 104.425 284.5 102.025C283.45 99.625 282.925 96.725 282.925 93.325C282.925 90.175 283.55 87.175 284.8 84.325C286.05 81.475 287.875 79 290.275 76.9C292.725 74.75 295.75 73.05 299.35 71.8C303 70.5 307.2 69.85 311.95 69.85C317.25 69.85 322.075 70.725 326.425 72.475C330.775 74.225 334.4 76.525 337.3 79.375L333.1 86.05Z" fill="black"/>
<path d="M13 163C7.47715 163 3 158.523 3 153V153C3 147.477 7.47715 143 13 143H92C97.5228 143 102 147.477 102 153V153C102 158.523 97.5228 163 92 163H13Z" fill="black"/>
<rect x="309" y="154" width="20" height="233" rx="10" transform="rotate(-90 309 154)" fill="black"/>
<rect x="99.3186" y="161.784" width="20" height="92.5583" rx="10" transform="rotate(-162.069 99.3186 161.784)" fill="black"/>
<rect x="262.892" y="281.811" width="20" height="144.987" rx="10" transform="rotate(-174.05 262.892 281.811)" fill="black"/>
<path d="M273.22 158.535C271.994 164.224 267.526 161.363 263.102 156.682C256.252 149.437 256.944 138.249 262.882 130.24V130.24C269.371 121.486 281.562 117.453 290.103 124.219C292.966 126.487 294.814 128.883 294 131C291.5 137.5 275.851 146.323 273.22 158.535Z" fill="black"/>
<path d="M321.699 133.257C328.305 134.075 328.938 138.729 327.725 143.473C325.82 150.93 317.945 154.611 310.251 154.799L303.399 154.966C284.744 155.42 268.944 126.42 287.389 123.601C288.63 123.411 289.693 123.82 290.5 125C296.999 134.5 307.5 131.5 321.699 133.257Z" fill="black"/>
<rect x="201.186" y="226.401" width="20" height="138.599" rx="10" transform="rotate(-163.593 201.186 226.401)" fill="black"/>
<rect x="147.074" y="131.17" width="20" height="68.0723" rx="10" transform="rotate(157.703 147.074 131.17)" fill="black"/>
<rect x="263.164" y="282.347" width="20" height="195.402" rx="10" transform="rotate(174.045 263.164 282.347)" fill="black"/>
<rect x="142.588" y="140.732" width="20" height="117.564" rx="10" transform="rotate(-164.585 142.588 140.732)" fill="black"/>
<path d="M525 137.826C528 132.652 529.758 134.5 535.5 134.5V134.5C546.124 134.5 557.591 145.613 556.642 156.194C556.498 157.789 556.288 159.552 556 161.5C552.5 185.174 547.501 179.5 543.5 178.5C539.5 177.5 536.879 165.5 537.5 159C538.121 152.5 522 143 525 137.826Z" fill="black"/>
<rect x="205.934" y="221.411" width="20" height="201.828" rx="10" transform="rotate(169.473 205.934 221.411)" fill="black"/>
<ellipse cx="230.5" cy="56" rx="10.5" ry="11" fill="black"/>
<rect x="3" y="123" width="20" height="55" transform="rotate(-90 3 123)" fill="black"/>
<rect x="3" y="83" width="17" height="71" rx="8.5" transform="rotate(-90 3 83)" fill="black"/>
<rect x="23" y="162" width="20" height="94" rx="10" transform="rotate(-180 23 162)" fill="black"/>
</svg>
